<svg xmlns="http://www.w3.org/2000/svg" xmlns:xlink="http://www.w3.org/1999/xlink" width="500" zoomAndPan="magnify" viewBox="0 0 375.12 194.87999" height="250" preserveAspectRatio="xMidYMid meet" version="1.0"><defs><g/></defs><g fill="#d78100" fill-opacity="1"><g transform="translate(0, 141.141987)"><g><path d="M 5.613281 -8.277344 L 5.613281 -95.5625 C 5.613281 -97.527344 10.359375 -98.507812 19.855469 -98.507812 C 29.351562 -98.507812 34.097656 -97.527344 34.097656 -95.5625 L 34.097656 -26.800781 L 55.710938 -26.800781 C 57.394531 -26.800781 58.5625 -24.605469 59.21875 -20.207031 C 59.5 -18.054688 59.636719 -15.855469 59.636719 -13.613281 C 59.636719 -11.367188 59.5 -9.074219 59.21875 -6.734375 C 58.46875 -2.246094 57.253906 0 55.570312 0 L 12.347656 0 C 10.289062 0 8.652344 -0.84375 7.4375 -2.527344 C 6.222656 -4.210938 5.613281 -6.128906 5.613281 -8.277344 Z M 5.613281 -8.277344 "/></g></g></g><g fill="#d78100" fill-opacity="1"><g transform="translate(61.0381, 141.141987)"><g><path d="M 52.902344 -95.421875 C 52.902344 -97.292969 57.976562 -98.226562 68.128906 -98.226562 C 78.277344 -98.226562 83.355469 -97.292969 83.355469 -95.421875 L 83.355469 -31.011719 C 83.355469 -21.46875 79.9375 -13.683594 73.109375 -7.648438 C 66.28125 -1.613281 56.855469 1.402344 44.835938 1.402344 C 32.8125 1.402344 23.035156 -1.707031 15.507812 -7.929688 C 7.976562 -14.148438 4.210938 -22.546875 4.210938 -33.117188 L 4.210938 -95.28125 C 4.210938 -97.152344 9.285156 -98.089844 19.433594 -98.089844 C 29.585938 -98.089844 34.660156 -97.152344 34.660156 -95.28125 L 34.660156 -31.996094 C 34.660156 -30.125 35.644531 -28.625 37.609375 -27.503906 C 39.664062 -26.382812 41.816406 -25.820312 44.0625 -25.820312 C 46.308594 -25.820312 48.34375 -26.335938 50.167969 -27.363281 C 51.992188 -28.394531 52.902344 -29.9375 52.902344 -31.996094 Z M 52.902344 -95.421875 "/></g></g></g><g fill="#d78100" fill-opacity="1"><g transform="translate(149.157462, 141.141987)"><g><path d="M 105.246094 0.140625 C 96.917969 0.140625 92.753906 -0.796875 92.753906 -2.667969 L 89.808594 -58.9375 L 72.6875 -1.964844 C 72.316406 -0.84375 69.132812 -0.28125 63.148438 -0.28125 C 57.160156 -0.28125 54.074219 -0.796875 53.886719 -1.824219 L 36.203125 -59.5 L 34.238281 -3.507812 C 34.144531 -2.105469 32.367188 -1.144531 28.90625 -0.632812 C 25.445312 -0.117188 22.570312 0.140625 20.277344 0.140625 C 17.984375 0.140625 15.761719 0 13.613281 -0.28125 C 9.121094 -0.933594 6.921875 -2.105469 7.015625 -3.789062 L 10.242188 -95 C 10.242188 -97.246094 15.949219 -98.367188 27.363281 -98.367188 C 30.730469 -98.367188 34.847656 -98.113281 39.710938 -97.597656 C 44.578125 -97.082031 47.289062 -96.078125 47.851562 -94.578125 L 63.566406 -50.378906 L 77.320312 -94.71875 C 78.160156 -97.152344 84.617188 -98.367188 96.683594 -98.367188 C 100.144531 -98.367188 104.285156 -98.113281 109.105469 -97.597656 C 113.921875 -97.082031 116.332031 -96.171875 116.332031 -94.859375 L 120.398438 -2.804688 C 120.398438 -1.777344 118.574219 -1.027344 114.925781 -0.5625 C 111.277344 -0.09375 108.050781 0.140625 105.246094 0.140625 Z M 105.246094 0.140625 "/></g></g></g><g fill="#d78100" fill-opacity="1"><g transform="translate(276.425396, 141.141987)"><g><path d="M 48.761719 1.402344 C 35.621094 1.402344 24.90625 -2.898438 16.628906 -11.507812 C 8.347656 -20.113281 4.210938 -32.671875 4.210938 -49.183594 C 4.210938 -65.695312 8.394531 -78.207031 16.769531 -86.722656 C 25.140625 -95.234375 35.945312 -99.492188 49.183594 -99.492188 C 62.421875 -99.492188 73.109375 -95.304688 81.25 -86.933594 C 89.386719 -78.558594 93.457031 -65.882812 93.457031 -48.902344 C 93.457031 -31.925781 89.292969 -19.292969 80.96875 -11.015625 C 72.640625 -2.738281 61.90625 1.402344 48.761719 1.402344 Z M 48.832031 -72.546875 C 44.34375 -72.546875 40.578125 -70.492188 37.539062 -66.375 C 34.496094 -62.257812 32.976562 -56.480469 32.976562 -49.042969 C 32.976562 -41.605469 34.425781 -35.898438 37.328125 -31.925781 C 40.226562 -27.949219 44.039062 -25.960938 48.761719 -25.960938 C 53.488281 -25.960938 57.324219 -27.972656 60.269531 -31.996094 C 63.21875 -36.015625 64.691406 -41.769531 64.691406 -49.253906 C 64.691406 -56.738281 63.171875 -62.492188 60.128906 -66.515625 C 57.089844 -70.539062 53.324219 -72.546875 48.832031 -72.546875 Z M 48.832031 -72.546875 "/></g></g></g></svg>