<svg xmlns="http://www.w3.org/2000/svg" xmlns:xlink="http://www.w3.org/1999/xlink" width="500" zoomAndPan="magnify" viewBox="0 0 375.12 194.87999" height="250" preserveAspectRatio="xMidYMid meet" version="1.0"><defs><g/></defs><g fill="#5271ff" fill-opacity="1"><g transform="translate(-0.000000000000085066, 136.274378)"><g><path d="M 12.789062 0 L 12.789062 -87.757812 L 23.820312 -87.757812 L 23.820312 -10.53125 L 66.445312 -10.53125 L 66.445312 0 Z M 12.789062 0 "/></g></g></g><g fill="#5271ff" fill-opacity="1"><g transform="translate(62.555636, 136.274378)"><g><path d="M 45.636719 1.503906 C 35.019531 1.503906 26.726562 -1.796875 20.75 -8.398438 C 14.773438 -15.003906 11.785156 -24.113281 11.785156 -35.730469 L 11.785156 -87.757812 L 22.691406 -87.757812 L 22.691406 -36.484375 C 22.691406 -27.539062 24.65625 -20.769531 28.585938 -16.171875 C 32.511719 -11.574219 38.195312 -9.277344 45.636719 -9.277344 C 60.929688 -9.277344 68.578125 -18.347656 68.578125 -36.484375 L 68.578125 -87.757812 L 79.609375 -87.757812 L 79.609375 -35.730469 C 79.609375 -24.113281 76.601562 -15.003906 70.582031 -8.398438 C 64.566406 -1.796875 56.25 1.503906 45.636719 1.503906 Z M 45.636719 1.503906 "/></g></g></g><g fill="#5271ff" fill-opacity="1"><g transform="translate(153.945247, 136.274378)"><g><path d="M 12.789062 0 L 12.789062 -87.757812 L 23.066406 -87.757812 L 57.546875 -35.730469 L 91.769531 -87.757812 L 102.050781 -87.757812 L 102.050781 0 L 91.019531 0 L 91.019531 -67.074219 L 61.933594 -23.320312 L 52.90625 -23.320312 L 23.820312 -67.199219 L 23.820312 0 Z M 12.789062 0 "/></g></g></g><g fill="#5271ff" fill-opacity="1"><g transform="translate(268.777733, 136.274378)"><g><path d="M 52.65625 1.628906 C 43.796875 1.628906 35.941406 -0.3125 29.085938 -4.199219 C 22.234375 -8.085938 16.882812 -13.457031 13.039062 -20.308594 C 9.195312 -27.164062 7.273438 -35.019531 7.273438 -43.878906 C 7.273438 -52.824219 9.195312 -60.699219 13.039062 -67.511719 C 16.882812 -74.324219 22.234375 -79.671875 29.085938 -83.558594 C 35.941406 -87.445312 43.796875 -89.390625 52.65625 -89.390625 C 61.597656 -89.390625 69.476562 -87.445312 76.289062 -83.558594 C 83.101562 -79.671875 88.449219 -74.324219 92.335938 -67.511719 C 96.222656 -60.699219 98.164062 -52.824219 98.164062 -43.878906 C 98.164062 -35.019531 96.222656 -27.164062 92.335938 -20.308594 C 88.449219 -13.457031 83.101562 -8.085938 76.289062 -4.199219 C 69.476562 -0.3125 61.597656 1.628906 52.65625 1.628906 Z M 18.554688 -43.878906 C 18.554688 -37.109375 19.996094 -31.132812 22.878906 -25.953125 C 25.765625 -20.769531 29.777344 -16.714844 34.914062 -13.789062 C 40.054688 -10.867188 45.96875 -9.402344 52.65625 -9.402344 C 59.425781 -9.402344 65.359375 -10.867188 70.457031 -13.789062 C 75.558594 -16.714844 79.546875 -20.769531 82.429688 -25.953125 C 85.316406 -31.132812 86.757812 -37.109375 86.757812 -43.878906 C 86.757812 -50.734375 85.316406 -56.730469 82.429688 -61.871094 C 79.546875 -67.011719 75.558594 -71.042969 70.457031 -73.96875 C 65.359375 -76.894531 59.425781 -78.355469 52.65625 -78.355469 C 45.96875 -78.355469 40.054688 -76.894531 34.914062 -73.96875 C 29.777344 -71.042969 25.765625 -67.011719 22.878906 -61.871094 C 19.996094 -56.730469 18.554688 -50.734375 18.554688 -43.878906 Z M 18.554688 -43.878906 "/></g></g></g></svg>